<svg xmlns="http://www.w3.org/2000/svg" xmlns:xlink="http://www.w3.org/1999/xlink" viewBox="0 0 283.46 283.46">
<defs>

<style>.cls-1{fill:url(#linear-gradient);}.cls-2{fill:#dbbf9a;}.cls-3{fill:#fafafa;}
#shadow {filter: drop-shadow(rgb(0, 0, 0) 5px 5px 5px);}
</style>

<linearGradient id="linear-gradient" x1="0.5" y1="-0.5" x2="283.5" y2="284.5" gradientUnits="userSpaceOnUse"><stop offset="0" stop-color="#b8681d"/><stop offset="1" stop-color="#ece9d8"/></linearGradient>

</defs>

<title>Cloud points</title>

<g id="Layer_2" data-name="Layer 2">
<g id="background_05" data-name="background 05">
<rect class="cls-1" width="283.46" height="283.46"/>
</g>

<g id="Cloud_points" data-name="Cloud points"><path class="cls-2" d="M52,209.21c-16.23,0-27.12-15.17-27.12-32.46,0-36.09,39.29-34.43,39.29-34.43s0-17.67,14.51-28.56c17.19-12.89,37.58-9.82,37.58-9.82s12.6-29.68,49.11-29.68c45.91,0,55.09,47.4,55.09,47.4s38.13,8.11,38.13,45.05-32.37,42.5-39.62,42.5Z"/>
</g>

<g id="shadow" data-name="Layer 8">
<path class="cls-3" d="M219.75,163.83a9.07,9.07,0,1,0,9.08,9.07A9.07,9.07,0,0,0,219.75,163.83Z"/><path class="cls-3" d="M178.07,94.41a5.24,5.24,0,1,0,5.24,5.24A5.24,5.24,0,0,0,178.07,94.41Z"/><circle class="cls-3" cx="234.83" cy="201.5" r="5.36"/><circle class="cls-3" cx="231.49" cy="128.52" r="10.04"/><path class="cls-3" d="M166.67,148.4a9,9,0,1,0-9-9A9,9,0,0,0,166.67,148.4Z"/><path class="cls-3" d="M158.68,167.86a9.82,9.82,0,1,0,9.81,9.81A9.82,9.82,0,0,0,158.68,167.86Z"/><path class="cls-3" d="M171.89,190.18a6.33,6.33,0,1,0-6.32,6.33A6.32,6.32,0,0,0,171.89,190.18Z"/><path class="cls-3" d="M146.1,166.08a2.71,2.71,0,1,0-2.71,2.71A2.7,2.7,0,0,0,146.1,166.08Z"/><path class="cls-3" d="M133.59,177.26a3.47,3.47,0,1,0,3.47,3.47A3.47,3.47,0,0,0,133.59,177.26Z"/><path class="cls-3" d="M174.19,160.41a9.83,9.83,0,1,0,9.83-9.84A9.83,9.83,0,0,0,174.19,160.41Z"/><path class="cls-3" d="M234.78,174.18a7.92,7.92,0,1,0,7.91,7.91A7.91,7.91,0,0,0,234.78,174.18Z"/><path class="cls-3" d="M207,99.49a3.5,3.5,0,1,0-3.49,3.49A3.5,3.5,0,0,0,207,99.49Z"/><path class="cls-3" d="M105.07,171.57a4,4,0,1,0,4,4A4,4,0,0,0,105.07,171.57Z"/><path class="cls-3" d="M205.92,201.32a4.24,4.24,0,1,0-4.24,4.24A4.24,4.24,0,0,0,205.92,201.32Z"/><path class="cls-3" d="M153.65,138.25a3.49,3.49,0,1,0-3.5-3.49A3.49,3.49,0,0,0,153.65,138.25Z"/><circle class="cls-3" cx="139.26" cy="153.62" r="9.37"/><path class="cls-3" d="M57.94,160.32a4.75,4.75,0,1,0,4.74,4.75A4.75,4.75,0,0,0,57.94,160.32Z"/><path class="cls-3" d="M81.73,187a3.08,3.08,0,1,0-3.08,3.08A3.08,3.08,0,0,0,81.73,187Z"/><path class="cls-3" d="M90.19,179.06a5.75,5.75,0,1,0-5.75,5.75A5.76,5.76,0,0,0,90.19,179.06Z"/><path class="cls-3" d="M52.33,195.67a3.77,3.77,0,1,0,3.77-3.76A3.76,3.76,0,0,0,52.33,195.67Z"/><circle class="cls-3" cx="249.19" cy="151.98" r="4.3"/><path class="cls-3" d="M203.69,124.6a3.16,3.16,0,1,0-3.15-3.16A3.17,3.17,0,0,0,203.69,124.6Z"/><circle class="cls-3" cx="185.61" cy="204.57" r="3.26"/><path class="cls-3" d="M173.94,85a4.63,4.63,0,1,0-4.62-4.63A4.63,4.63,0,0,0,173.94,85Z"/><path class="cls-3" d="M171.15,92.25a2.92,2.92,0,1,0-2.92,2.92A2.92,2.92,0,0,0,171.15,92.25Z"/><path class="cls-3" d="M148.4,92.72a6.93,6.93,0,1,0,6.92-6.93A6.92,6.92,0,0,0,148.4,92.72Z"/><path class="cls-3" d="M37.94,168.13a3.06,3.06,0,1,0-3.06-3.06A3.06,3.06,0,0,0,37.94,168.13Z"/><path class="cls-3" d="M226.94,143.24a3.9,3.9,0,1,0-3.89,3.89A3.9,3.9,0,0,0,226.94,143.24Z"/><path class="cls-3" d="M245.32,158.17a10.11,10.11,0,1,0-10.11,10.11A10.11,10.11,0,0,0,245.32,158.17Z"/><path class="cls-3" d="M158.78,145.26a3,3,0,1,0,3,3A3,3,0,0,0,158.78,145.26Z"/><path class="cls-3" d="M240.36,168.11a3.36,3.36,0,1,0,3.35,3.36A3.35,3.35,0,0,0,240.36,168.11Z"/><path class="cls-3" d="M111.49,101.38a8.13,8.13,0,1,0,8.14,8.13A8.13,8.13,0,0,0,111.49,101.38Z"/><circle class="cls-3" cx="61.51" cy="180.22" r="9.87"/><circle class="cls-3" cx="55.42" cy="206.61" r="5.17"/><path class="cls-3" d="M141.72,134.91a3.7,3.7,0,1,0,3.7,3.7A3.71,3.71,0,0,0,141.72,134.91Z"/><circle class="cls-3" cx="157.12" cy="75.84" r="6.23" transform="translate(-9.99 25.7) rotate(-9.06)"/><path class="cls-3" d="M124.87,204.83a5.75,5.75,0,1,0-5.75,5.75A5.74,5.74,0,0,0,124.87,204.83Z"/><path class="cls-3" d="M213.66,156.81a6.51,6.51,0,1,0,6.51-6.54A6.52,6.52,0,0,0,213.66,156.81Z"/><path class="cls-3" d="M113.2,122.62a4.17,4.17,0,1,0-4.17,4.17A4.16,4.16,0,0,0,113.2,122.62Z"/><circle class="cls-3" cx="168.84" cy="200.02" r="3.55"/><circle class="cls-3" cx="187.92" cy="88.2" r="4.84"/><path class="cls-3" d="M198.77,161a5.44,5.44,0,1,0-5.44-5.44A5.44,5.44,0,0,0,198.77,161Z"/><path class="cls-3" d="M36.4,181.68a5.84,5.84,0,1,0-5.84,5.83A5.83,5.83,0,0,0,36.4,181.68Z"/><path class="cls-3" d="M152.7,198.24A5.26,5.26,0,1,0,158,203.5,5.27,5.27,0,0,0,152.7,198.24Z"/><path class="cls-3" d="M101.35,135.61a6.23,6.23,0,1,0,6.23,6.22A6.23,6.23,0,0,0,101.35,135.61Z"/><path class="cls-3" d="M220.27,191.3a6.17,6.17,0,1,0,6.17-6.18A6.17,6.17,0,0,0,220.27,191.3Z"/><path class="cls-3" d="M73.78,140.8a5,5,0,1,0-5-5A5,5,0,0,0,73.78,140.8Z"/><path class="cls-3" d="M125.44,156a4.82,4.82,0,1,0-4.82,4.82A4.82,4.82,0,0,0,125.44,156Z"/><path class="cls-3" d="M103.57,162.82a4.27,4.27,0,1,0-4.26,4.27A4.26,4.26,0,0,0,103.57,162.82Z"/><circle class="cls-3" cx="131.76" cy="131.81" r="6.99"/><path class="cls-3" d="M131.42,169A10.06,10.06,0,1,0,121.36,179,10.06,10.06,0,0,0,131.42,169Z"/><path class="cls-3" d="M112,140.82a7.63,7.63,0,1,0,7.63-7.63A7.63,7.63,0,0,0,112,140.82Z"/><path class="cls-3" d="M123.49,98.72a3.06,3.06,0,1,0-3-3A3.05,3.05,0,0,0,123.49,98.72Z"/><path class="cls-3" d="M85.73,193.19a5.12,5.12,0,1,0,5.12-5.12A5.12,5.12,0,0,0,85.73,193.19Z"/><path class="cls-3" d="M134.93,87.24a3.53,3.53,0,1,0-3.53,3.54A3.53,3.53,0,0,0,134.93,87.24Z"/><circle class="cls-3" cx="68.5" cy="158.8" r="4.12"/><circle class="cls-3" cx="178.67" cy="121.47" r="3.01"/><path class="cls-3" d="M121,185.82a4,4,0,1,0,4,4A4,4,0,0,0,121,185.82Z"/><path class="cls-3" d="M147.68,117.91a5.32,5.32,0,1,0,5.32,5.32A5.32,5.32,0,0,0,147.68,117.91Z"/><path class="cls-3" d="M144.94,79.66a3.5,3.5,0,1,0,3.51,3.5A3.5,3.5,0,0,0,144.94,79.66Z"/><path class="cls-3" d="M239.2,132.7a2.78,2.78,0,1,0,2.77,2.77A2.77,2.77,0,0,0,239.2,132.7Z"/><path class="cls-3" d="M130.08,119.71a4,4,0,1,0-4,4A4,4,0,0,0,130.08,119.71Z"/><circle class="cls-3" cx="183.31" cy="189.92" r="2.83"/><circle class="cls-3" cx="201.99" cy="188.39" r="3.85"/><path class="cls-3" d="M189.6,173.9a3,3,0,1,0-3,3A3,3,0,0,0,189.6,173.9Z"/><path class="cls-3" d="M226.56,202.83A10.36,10.36,0,1,0,216.2,213.2,10.36,10.36,0,0,0,226.56,202.83Z"/><circle class="cls-3" cx="133.54" cy="101.78" r="5.48"/><path class="cls-3" d="M83,146.25a2.71,2.71,0,1,0,2.71-2.71A2.71,2.71,0,0,0,83,146.25Z"/><path class="cls-3" d="M178.87,139a8.24,8.24,0,1,0,8.24,8.23A8.23,8.23,0,0,0,178.87,139Z"/><path class="cls-3" d="M45.21,196.35a9.77,9.77,0,1,0-9.77-9.76A9.76,9.76,0,0,0,45.21,196.35Z"/><path class="cls-3" d="M92.57,115.25a8.19,8.19,0,1,0,8.18,8.18A8.19,8.19,0,0,0,92.57,115.25Z"/><path class="cls-3" d="M86.08,210.58a3.68,3.68,0,1,0-3.68-3.68A3.68,3.68,0,0,0,86.08,210.58Z"/><path class="cls-3" d="M209.58,143.3a3.18,3.18,0,1,0-3.18,3.18A3.17,3.17,0,0,0,209.58,143.3Z"/><path class="cls-3" d="M147.24,100.46a4.47,4.47,0,1,0,4.47,4.46A4.47,4.47,0,0,0,147.24,100.46Z"/><circle class="cls-3" cx="165.78" cy="109.63" r="4.61"/><path class="cls-3" d="M40.26,202.19A3.74,3.74,0,1,0,44,198.46,3.73,3.73,0,0,0,40.26,202.19Z"/><path class="cls-3" d="M256.05,182.59a3.5,3.5,0,1,0-3.5,3.5A3.49,3.49,0,0,0,256.05,182.59Z"/><path class="cls-3" d="M75.47,200.4a4.58,4.58,0,1,0-4.58-4.58A4.58,4.58,0,0,0,75.47,200.4Z"/><path class="cls-3" d="M88.75,153.72a9.37,9.37,0,1,0-9.36,9.36A9.37,9.37,0,0,0,88.75,153.72Z"/><path class="cls-3" d="M146.57,192.48a6.85,6.85,0,1,0-6.84,6.85A6.84,6.84,0,0,0,146.57,192.48Z"/><path class="cls-3" d="M208.47,127.59a7.73,7.73,0,1,0,7.73-7.73A7.74,7.74,0,0,0,208.47,127.59Z"/><circle class="cls-3" cx="53.96" cy="152.79" r="8.55"/><path class="cls-3" d="M180.12,129.38a4.62,4.62,0,1,0,4.62,4.62A4.61,4.61,0,0,0,180.12,129.38Z"/><path class="cls-3" d="M200.9,186.89a7.76,7.76,0,1,0-7.76-7.76A7.76,7.76,0,0,0,200.9,186.89Z"/><path class="cls-3" d="M187,134.5a9.7,9.7,0,1,0,9.7-9.7A9.7,9.7,0,0,0,187,134.5Z"/><path class="cls-3" d="M159.62,160.53a3.16,3.16,0,1,0,3.16,3.16A3.17,3.17,0,0,0,159.62,160.53Z"/><circle class="cls-3" cx="170.54" cy="168.69" r="4.59"/><path class="cls-3" d="M247.35,170.12a6.21,6.21,0,1,0,6.21-6.21A6.21,6.21,0,0,0,247.35,170.12Z"/><path class="cls-3" d="M86.79,156.92a9.8,9.8,0,1,0,9.8,9.8A9.8,9.8,0,0,0,86.79,156.92Z"/><path class="cls-3" d="M208.82,104a8,8,0,1,0,8,8A8,8,0,0,0,208.82,104Z"/><circle class="cls-3" cx="191.71" cy="114.06" r="6.35"/><path class="cls-3" d="M37.94,148.3a5.32,5.32,0,1,0,5.32,5.32A5.32,5.32,0,0,0,37.94,148.3Z"/><path class="cls-3" d="M72.7,117.3A5.32,5.32,0,1,0,78,122.62,5.32,5.32,0,0,0,72.7,117.3Z"/><path class="cls-3" d="M98,108.11a4.17,4.17,0,1,0-4.17,4.18A4.17,4.17,0,0,0,98,108.11Z"/><path class="cls-3" d="M95.24,194.7a10.45,10.45,0,1,0,10.45-10.45A10.45,10.45,0,0,0,95.24,194.7Z"/>
</g>
</g>
</svg>