<svg xmlns="http://www.w3.org/2000/svg" xmlns:xlink="http://www.w3.org/1999/xlink" viewBox="0 0 171.7 233.48">
<defs>
<style>.cls-1{fill:#fafafa;}.cls-2{fill:#c8c8c8;}.cls-3{fill:url(#linear-gradient);}.cls-4{fill:#dbbf9a;}
#shadow {filter: drop-shadow(rgb(0, 0, 0) 3px 3px 3px);}
</style>

<linearGradient id="linear-gradient" x1="30.57" y1="92.4" x2="141.34" y2="203.95" gradientUnits="userSpaceOnUse">
<stop offset="0" stop-color="#b8681d"/>
<stop offset="1" stop-color="#ece9d8"/>
</linearGradient>

</defs>

<title>ITEM_CLOUD_POINTS</title>

<g id="icon_item" data-name="icon item">
<path class="cls-1" d="M65.7,258.29a9.93,9.93,0,0,1-9.92-9.92V34.73a9.93,9.93,0,0,1,9.92-9.92H168.1V71.43a12.78,12.78,0,0,0,12.76,12.76h46.62V248.37a9.93,9.93,0,0,1-9.92,9.92Z" transform="translate(-55.78 -24.81)"/>
<path class="cls-2" d="M180.86,77.1h41.52a2.84,2.84,0,0,0,2-4.84L180,27.9a2.84,2.84,0,0,0-4.84,2V71.43A5.68,5.68,0,0,0,180.86,77.1Z" transform="translate(-55.78 -24.81)"/>
<path d="M80.89,58.11a3.41,3.41,0,1,1,0-6.81H143a3.41,3.41,0,0,1,0,6.81Z" transform="translate(-55.78 -24.81)"/>
<path d="M80.89,93.37a3.41,3.41,0,1,1,0-6.81H143a3.41,3.41,0,0,1,0,6.81Z" transform="translate(-55.78 -24.81)"/>
</g>

<g id="point_cloud" data-name="point cloud">
<rect id="shadow" class="cls-3" x="22.07" y="84.29" width="127.56" height="127.56" rx="28.35" ry="28.35"/>
<path class="cls-4" d="M101.25,203.24c-7.31,0-12.21-6.82-12.21-14.6,0-16.24,17.68-15.49,17.68-15.49s0-8,6.54-12.86c7.73-5.8,16.91-4.42,16.91-4.42a24,24,0,0,1,22.1-13.35c20.65,0,24.79,21.33,24.79,21.33s17.15,3.65,17.15,20.27-14.56,19.12-17.83,19.12Z" transform="translate(-55.78 -24.81)"/>
</g>


<g id="shadow" data-name="Layer 8">
<path class="cls-1" d="M176.74,182.82a4.09,4.09,0,1,0,4.08,4.08A4.09,4.09,0,0,0,176.74,182.82Z" transform="translate(-55.78 -24.81)"/>
<path class="cls-1" d="M158,151.58a2.36,2.36,0,1,0,2.36,2.36A2.36,2.36,0,0,0,158,151.58Z" transform="translate(-55.78 -24.81)"/>
<circle class="cls-1" cx="127.74" cy="174.97" r="2.41"/>
<circle class="cls-1" cx="126.24" cy="142.12" r="4.52"/>
<path class="cls-1" d="M152.85,175.88a4.06,4.06,0,1,0-4-4A4,4,0,0,0,152.85,175.88Z" transform="translate(-55.78 -24.81)"/>
<path class="cls-1" d="M149.25,184.64a4.42,4.42,0,1,0,4.42,4.41A4.4,4.4,0,0,0,149.25,184.64Z" transform="translate(-55.78 -24.81)"/>
<path class="cls-1" d="M155.2,194.68a2.85,2.85,0,1,0-2.85,2.85A2.84,2.84,0,0,0,155.2,194.68Z" transform="translate(-55.78 -24.81)"/>
<path class="cls-1" d="M143.59,183.84a1.22,1.22,0,1,0-1.21,1.21A1.21,1.21,0,0,0,143.59,183.84Z" transform="translate(-55.78 -24.81)"/>
<path class="cls-1" d="M138,188.87a1.56,1.56,0,1,0,1.57,1.56A1.56,1.56,0,0,0,138,188.87Z" transform="translate(-55.78 -24.81)"/>
<path class="cls-1" d="M156.23,181.28a4.43,4.43,0,1,0,4.43-4.42A4.43,4.43,0,0,0,156.23,181.28Z" transform="translate(-55.78 -24.81)"/>
<path class="cls-1" d="M183.5,187.48a3.56,3.56,0,1,0,3.56,3.56A3.56,3.56,0,0,0,183.5,187.48Z" transform="translate(-55.78 -24.81)"/>
<path class="cls-1" d="M171,153.87a1.57,1.57,0,1,0-1.57,1.57A1.57,1.57,0,0,0,171,153.87Z" transform="translate(-55.78 -24.81)"/>
<path class="cls-1" d="M125.13,186.31a1.81,1.81,0,1,0,1.82,1.81A1.81,1.81,0,0,0,125.13,186.31Z" transform="translate(-55.78 -24.81)"/>
<path class="cls-1" d="M170.51,199.69a1.91,1.91,0,1,0-1.91,1.91A1.9,1.9,0,0,0,170.51,199.69Z" transform="translate(-55.78 -24.81)"/>
<path class="cls-1" d="M147,171.31a1.57,1.57,0,1,0-1.57-1.57A1.57,1.57,0,0,0,147,171.31Z" transform="translate(-55.78 -24.81)"/>
<circle class="cls-1" cx="84.74" cy="153.42" r="4.22"/>
<path class="cls-1" d="M103.92,181.25a2.13,2.13,0,1,0,2.13,2.13A2.13,2.13,0,0,0,103.92,181.25Z" transform="translate(-55.78 -24.81)"/>
<path class="cls-1" d="M114.63,193.25a1.39,1.39,0,1,0-1.39,1.39A1.38,1.38,0,0,0,114.63,193.25Z" transform="translate(-55.78 -24.81)"/>
<path class="cls-1" d="M118.43,189.68a2.59,2.59,0,1,0-2.58,2.58A2.59,2.59,0,0,0,118.43,189.68Z" transform="translate(-55.78 -24.81)"/>
<path class="cls-1" d="M101.4,197.15a1.7,1.7,0,1,0,1.69-1.69A1.69,1.69,0,0,0,101.4,197.15Z" transform="translate(-55.78 -24.81)"/>
<circle class="cls-1" cx="134.21" cy="152.68" r="1.94"/>
<path class="cls-1" d="M169.51,165.17a1.42,1.42,0,1,0-1.42-1.42A1.43,1.43,0,0,0,169.51,165.17Z" transform="translate(-55.78 -24.81)"/>
<circle class="cls-1" cx="105.59" cy="176.35" r="1.47"/>
<path class="cls-1" d="M156.12,147.35a2.08,2.08,0,1,0-2.08-2.08A2.09,2.09,0,0,0,156.12,147.35Z" transform="translate(-55.78 -24.81)"/>
<path class="cls-1" d="M154.87,150.61a1.32,1.32,0,1,0-1.32,1.31A1.32,1.32,0,0,0,154.87,150.61Z" transform="translate(-55.78 -24.81)"/>
<path class="cls-1" d="M144.63,150.82a3.12,3.12,0,1,0,3.11-3.11A3.11,3.11,0,0,0,144.63,150.82Z" transform="translate(-55.78 -24.81)"/>
<path class="cls-1" d="M94.92,184.76a1.38,1.38,0,1,0-1.38-1.38A1.38,1.38,0,0,0,94.92,184.76Z" transform="translate(-55.78 -24.81)"/>
<path class="cls-1" d="M180,173.56a1.75,1.75,0,1,0-1.75,1.75A1.75,1.75,0,0,0,180,173.56Z" transform="translate(-55.78 -24.81)"/>
<path class="cls-1" d="M188.24,180.28a4.55,4.55,0,1,0-4.54,4.54A4.55,4.55,0,0,0,188.24,180.28Z" transform="translate(-55.78 -24.81)"/>
<path class="cls-1" d="M149.3,174.47a1.34,1.34,0,1,0,1.34,1.34A1.34,1.34,0,0,0,149.3,174.47Z" transform="translate(-55.78 -24.81)"/>
<path class="cls-1" d="M186,184.75a1.51,1.51,0,1,0,1.51,1.51A1.5,1.5,0,0,0,186,184.75Z" transform="translate(-55.78 -24.81)"/>
<path class="cls-1" d="M128,154.72a3.66,3.66,0,1,0,3.66,3.66A3.66,3.66,0,0,0,128,154.72Z" transform="translate(-55.78 -24.81)"/>
<circle class="cls-1" cx="49.75" cy="165.39" r="4.44"/>
<circle class="cls-1" cx="47.01" cy="177.26" r="2.32"/>
<path class="cls-1" d="M141.62,169.81a1.67,1.67,0,1,0,1.67,1.67A1.67,1.67,0,0,0,141.62,169.81Z" transform="translate(-55.78 -24.81)"/>
<circle class="cls-1" cx="92.77" cy="118.42" r="2.8"/>
<path class="cls-1" d="M134,201.27a2.59,2.59,0,1,0-2.59,2.59A2.59,2.59,0,0,0,134,201.27Z" transform="translate(-55.78 -24.81)"/>
<path class="cls-1" d="M174,179.66a2.94,2.94,0,1,0,2.94-2.94A2.95,2.95,0,0,0,174,179.66Z" transform="translate(-55.78 -24.81)"/>
<path class="cls-1" d="M128.79,164.28a1.88,1.88,0,1,0-1.88,1.88A1.88,1.88,0,0,0,128.79,164.28Z" transform="translate(-55.78 -24.81)"/>
<circle class="cls-1" cx="98.05" cy="174.3" r="1.6"/>
<circle class="cls-1" cx="106.63" cy="123.98" r="2.18"/>
<path class="cls-1" d="M167.29,181.55a2.45,2.45,0,1,0-2.44-2.45A2.45,2.45,0,0,0,167.29,181.55Z" transform="translate(-55.78 -24.81)"/>
<path class="cls-1" d="M94.23,190.85a2.63,2.63,0,1,0-2.63,2.63A2.63,2.63,0,0,0,94.23,190.85Z" transform="translate(-55.78 -24.81)"/>
<path class="cls-1" d="M146.56,198.31a2.37,2.37,0,1,0,2.37,2.36A2.36,2.36,0,0,0,146.56,198.31Z" transform="translate(-55.78 -24.81)"/>
<path class="cls-1" d="M123.46,170.12a2.81,2.81,0,1,0,2.8,2.8A2.8,2.8,0,0,0,123.46,170.12Z" transform="translate(-55.78 -24.81)"/>
<path class="cls-1" d="M177,195.18a2.78,2.78,0,1,0,2.78-2.77A2.77,2.77,0,0,0,177,195.18Z" transform="translate(-55.78 -24.81)"/>
<path class="cls-1" d="M111.05,172.46a2.24,2.24,0,1,0-2.24-2.24A2.24,2.24,0,0,0,111.05,172.46Z" transform="translate(-55.78 -24.81)"/>
<path class="cls-1" d="M134.29,179.28a2.17,2.17,0,1,0-2.16,2.17A2.17,2.17,0,0,0,134.29,179.28Z" transform="translate(-55.78 -24.81)"/>
<path class="cls-1" d="M124.46,182.37a1.92,1.92,0,1,0-1.92,1.92A1.92,1.92,0,0,0,124.46,182.37Z" transform="translate(-55.78 -24.81)"/>
<circle class="cls-1" cx="81.36" cy="143.6" r="3.14"/>
<path class="cls-1" d="M137,185.13a4.53,4.53,0,1,0-4.53,4.53A4.52,4.52,0,0,0,137,185.13Z" transform="translate(-55.78 -24.81)"/>
<path class="cls-1" d="M128.23,172.47a3.44,3.44,0,1,0,3.43-3.44A3.43,3.43,0,0,0,128.23,172.47Z" transform="translate(-55.78 -24.81)"/>
<path class="cls-1" d="M133.42,153.52a1.37,1.37,0,1,0-1.37-1.37A1.37,1.37,0,0,0,133.42,153.52Z" transform="translate(-55.78 -24.81)"/>
<path class="cls-1" d="M116.43,196a2.31,2.31,0,1,0,2.3-2.31A2.3,2.3,0,0,0,116.43,196Z" transform="translate(-55.78 -24.81)"/>
<path class="cls-1" d="M138.57,148.36A1.59,1.59,0,1,0,137,150,1.59,1.59,0,0,0,138.57,148.36Z" transform="translate(-55.78 -24.81)"/>
<circle class="cls-1" cx="52.9" cy="155.75" r="1.85"/>
<circle class="cls-1" cx="102.47" cy="138.95" r="1.36"/>
<path class="cls-1" d="M132.28,192.72a1.81,1.81,0,1,0,1.82,1.81A1.81,1.81,0,0,0,132.28,192.72Z" transform="translate(-55.78 -24.81)"/>
<path class="cls-1" d="M144.31,162.16a2.4,2.4,0,1,0,2.39,2.39A2.39,2.39,0,0,0,144.31,162.16Z" transform="translate(-55.78 -24.81)"/>
<path class="cls-1" d="M143.07,145a1.58,1.58,0,0,0,0,3.15,1.58,1.58,0,1,0,0-3.15Z" transform="translate(-55.78 -24.81)"/>
<path class="cls-1" d="M185.49,168.81a1.25,1.25,0,1,0,1.25,1.25A1.25,1.25,0,0,0,185.49,168.81Z" transform="translate(-55.78 -24.81)"/>
<path class="cls-1" d="M136.39,163a1.79,1.79,0,1,0-1.79,1.79A1.79,1.79,0,0,0,136.39,163Z" transform="translate(-55.78 -24.81)"/>
<circle class="cls-1" cx="104.56" cy="169.76" r="1.27"/>
<circle class="cls-1" cx="112.97" cy="169.07" r="1.73"/>
<path class="cls-1" d="M163.17,187.35a1.37,1.37,0,1,0-1.36,1.37A1.36,1.36,0,0,0,163.17,187.35Z" transform="translate(-55.78 -24.81)"/>
<path class="cls-1" d="M179.8,200.37a4.66,4.66,0,1,0-4.66,4.67A4.66,4.66,0,0,0,179.8,200.37Z" transform="translate(-55.78 -24.81)"/>
<circle class="cls-1" cx="82.16" cy="130.09" r="2.46"/>
<path class="cls-1" d="M115.18,174.91a1.22,1.22,0,1,0,1.22-1.22A1.22,1.22,0,0,0,115.18,174.91Z" transform="translate(-55.78 -24.81)"/>
<path class="cls-1" d="M158.34,171.63a3.71,3.71,0,1,0,3.71,3.71A3.71,3.71,0,0,0,158.34,171.63Z" transform="translate(-55.78 -24.81)"/>
<path class="cls-1" d="M98.19,197.46a4.4,4.4,0,1,0-4.39-4.4A4.39,4.39,0,0,0,98.19,197.46Z" transform="translate(-55.78 -24.81)"/>
<path class="cls-1" d="M119.5,161a3.69,3.69,0,1,0,3.69,3.68A3.68,3.68,0,0,0,119.5,161Z" transform="translate(-55.78 -24.81)"/>
<path class="cls-1" d="M116.58,203.86a1.66,1.66,0,1,0-1.65-1.66A1.66,1.66,0,0,0,116.58,203.86Z" transform="translate(-55.78 -24.81)"/>
<path class="cls-1" d="M172.16,173.59a1.43,1.43,0,1,0-1.43,1.43A1.43,1.43,0,0,0,172.16,173.59Z" transform="translate(-55.78 -24.81)"/>
<path class="cls-1" d="M144.11,154.31a2,2,0,1,0,2,2A2,2,0,0,0,144.11,154.31Z" transform="translate(-55.78 -24.81)"/>
<circle class="cls-1" cx="96.67" cy="133.62" r="2.08"/>
<path class="cls-1" d="M96,200.09a1.69,1.69,0,1,0,1.68-1.68A1.69,1.69,0,0,0,96,200.09Z" transform="translate(-55.78 -24.81)"/>
<path class="cls-1" d="M193.07,191.26a1.58,1.58,0,0,0-3.15,0,1.58,1.58,0,1,0,3.15,0Z" transform="translate(-55.78 -24.81)"/>
<path class="cls-1" d="M111.81,199.28a2.06,2.06,0,1,0-2.06-2.06A2.06,2.06,0,0,0,111.81,199.28Z" transform="translate(-55.78 -24.81)"/>
<path class="cls-1" d="M117.79,178.27a4.22,4.22,0,1,0-4.22,4.22A4.22,4.22,0,0,0,117.79,178.27Z" transform="translate(-55.78 -24.81)"/>
<path class="cls-1" d="M143.81,195.72a3.08,3.08,0,1,0-3.08,3.08A3.08,3.08,0,0,0,143.81,195.72Z" transform="translate(-55.78 -24.81)"/>
<path class="cls-1" d="M171.66,166.52a3.48,3.48,0,1,0,3.48-3.48A3.48,3.48,0,0,0,171.66,166.52Z" transform="translate(-55.78 -24.81)"/>
<circle class="cls-1" cx="46.35" cy="153.05" r="3.85"/>
<path class="cls-1" d="M158.9,167.32A2.08,2.08,0,1,0,161,169.4,2.08,2.08,0,0,0,158.9,167.32Z" transform="translate(-55.78 -24.81)"/>
<path class="cls-1" d="M168.25,193.2a3.49,3.49,0,1,0-3.49-3.49A3.49,3.49,0,0,0,168.25,193.2Z" transform="translate(-55.78 -24.81)"/>
<path class="cls-1" d="M162,169.62a4.37,4.37,0,1,0,4.36-4.36A4.36,4.36,0,0,0,162,169.62Z" transform="translate(-55.78 -24.81)"/>
<path class="cls-1" d="M149.68,181.34a1.42,1.42,0,1,0,1.42,1.42A1.42,1.42,0,0,0,149.68,181.34Z" transform="translate(-55.78 -24.81)"/>
<circle class="cls-1" cx="98.81" cy="160.2" r="2.07"/>
<path class="cls-1" d="M189.16,185.65a2.79,2.79,0,1,0,2.79-2.79A2.79,2.79,0,0,0,189.16,185.65Z" transform="translate(-55.78 -24.81)"/>
<path class="cls-1" d="M116.9,179.71a4.41,4.41,0,1,0,4.41,4.41A4.42,4.42,0,0,0,116.9,179.71Z" transform="translate(-55.78 -24.81)"/>
<path class="cls-1" d="M171.82,155.91a3.59,3.59,0,1,0,3.59,3.59A3.59,3.59,0,0,0,171.82,155.91Z" transform="translate(-55.78 -24.81)"/>
<circle class="cls-1" cx="108.34" cy="135.62" r="2.86"/>
<path class="cls-1" d="M94.92,175.83a2.4,2.4,0,1,0,2.4,2.4A2.4,2.4,0,0,0,94.92,175.83Z" transform="translate(-55.78 -24.81)"/>
<path class="cls-1" d="M110.56,161.88a2.4,2.4,0,1,0,2.4,2.4A2.4,2.4,0,0,0,110.56,161.88Z" transform="translate(-55.78 -24.81)"/>
<path class="cls-1" d="M121.93,157.75a1.88,1.88,0,1,0-1.88,1.88A1.88,1.88,0,0,0,121.93,157.75Z" transform="translate(-55.78 -24.81)"/>
<path class="cls-1" d="M120.7,196.72a4.71,4.71,0,1,0,4.71-4.71A4.71,4.71,0,0,0,120.7,196.72Z" transform="translate(-55.78 -24.81)"/>
</g>
</svg>